<svg width="36" height="36" viewBox="0 0 36 36" fill="none" xmlns="http://www.w3.org/2000/svg">
<circle cx="17.5292" cy="17.5292" r="17.5292" fill="#506DAA"/>
<mask id="mask0_2213_4151" style="mask-type:alpha" maskUnits="userSpaceOnUse" x="0" y="0" width="36" height="36">
<circle cx="17.5292" cy="17.5292" r="17.5292" fill="#506DAA"/>
</mask>
<g mask="url(#mask0_2213_4151)">
<path d="M28.6656 36.7425V33.1617C28.6656 31.2623 28.095 29.4407 27.0792 28.0976C26.0634 26.7545 24.6857 26 23.2492 26H12.4164C10.9799 26 9.6022 26.7545 8.58643 28.0976C7.57066 29.4407 7 31.2623 7 33.1617V36.7425" fill="white"/>
<path d="M17.4164 20.9871C20.4078 20.9871 22.8328 18.5621 22.8328 15.5707C22.8328 12.5793 20.4078 10.1543 17.4164 10.1543C14.425 10.1543 12 12.5793 12 15.5707C12 18.5621 14.425 20.9871 17.4164 20.9871Z" fill="white"/>
</g>
<circle cx="17.5292" cy="17.5292" r="17.0292" stroke="#506DAA"/>
</svg>
